<?xml version="1.0" encoding="UTF-8"?>
<!-- Created with Inkscape (http://www.inkscape.org/) -->
<svg width="103.75mm" height="160.51mm" version="1.1" viewBox="0 0 103.75 160.51" xmlns="http://www.w3.org/2000/svg">
 <g transform="translate(-39.119 -91.019)">
  <ellipse cx="121.37" cy="127.68" rx="14.052" ry="12.533" fill="#fff" opacity=".84084" stroke="#444" stroke-opacity=".84229" stroke-width=".6"/>
  <path d="m68.201 93.118-0.3798 157.99" fill="none" stroke="#000" stroke-width=".26458px"/>
  <path d="m68.201 93.118 63.806-0.3798" fill="none" stroke="#000" stroke-width=".26458px"/>
  <path d="m120.99 92.738c0 22.788 0.37979 22.788 0.37979 22.788" fill="none" stroke="#000" stroke-width=".26911px"/>
  <path d="m121.74 140.23v52.412" fill="none" stroke="#000" stroke-width=".26458px"/>
  <path d="m121.51 162.39c-20.524-11.849-20.129-12.153-20.129-12.153" fill="none" stroke="#000" stroke-width=".26458px"/>
  <path d="m121.74 192.11c-20.327 11.736-18.99 14.432-18.99 14.432" fill="none" stroke="#000" stroke-width=".26458px"/>
  <path d="m121.74 192.11 18.201 10.508 1.5483 3.544" fill="none" stroke="#000" stroke-width=".26458px"/>
  <path d="m41.236 250.73h54.311" fill="none" stroke="#000" stroke-width=".26458px"/>
  <path d="m121.74 162.57c20.498-12.947 20.104-13.279 20.104-13.279" fill="none" stroke="#000" stroke-width=".27639px"/>
 </g>
</svg>
